<svg class="main-svg" xmlns="http://www.w3.org/2000/svg" xmlns:xlink="http://www.w3.org/1999/xlink" width="600" height="400" style=""><rect x="0" y="0" width="600" height="400" style="fill: rgb(255, 255, 255); fill-opacity: 1;"/><defs id="defs-58d8c6"><g class="clips"><clipPath id="clip58d8c6xyplot" class="plotclip"><rect width="503.2370953630796" height="342.9133858267717"/></clipPath><clipPath class="axesclip" id="clip58d8c6x"><rect x="92.82589676290462" y="0" width="503.2370953630796" height="400"/></clipPath><clipPath class="axesclip" id="clip58d8c6y"><rect x="0" y="23.543307086614167" width="600" height="342.9133858267717"/></clipPath><clipPath class="axesclip" id="clip58d8c6xy"><rect x="92.82589676290462" y="23.543307086614167" width="503.2370953630796" height="342.9133858267717"/></clipPath></g><g class="gradients"/><g class="patterns"/></defs><g class="bglayer"/><g class="layer-below"><g class="imagelayer"/><g class="shapelayer"/></g><g class="cartesianlayer"><g class="subplot xy"><g class="layer-subplot"><g class="shapelayer"/><g class="imagelayer"/></g><g class="gridlayer"><g class="x"><path class="xgrid crisp" transform="translate(107.03589676290463,0)" d="M0,23.543307086614167v342.9133858267717" style="stroke: rgb(0, 0, 0); stroke-opacity: 0.1; stroke-width: 0.5px;"/><path class="xgrid crisp" transform="translate(186.20589676290462,0)" d="M0,23.543307086614167v342.9133858267717" style="stroke: rgb(0, 0, 0); stroke-opacity: 0.1; stroke-width: 0.5px;"/><path class="xgrid crisp" transform="translate(265.36589676290464,0)" d="M0,23.543307086614167v342.9133858267717" style="stroke: rgb(0, 0, 0); stroke-opacity: 0.1; stroke-width: 0.5px;"/><path class="xgrid crisp" transform="translate(344.5358967629046,0)" d="M0,23.543307086614167v342.9133858267717" style="stroke: rgb(0, 0, 0); stroke-opacity: 0.1; stroke-width: 0.5px;"/><path class="xgrid crisp" transform="translate(423.6958967629046,0)" d="M0,23.543307086614167v342.9133858267717" style="stroke: rgb(0, 0, 0); stroke-opacity: 0.1; stroke-width: 0.5px;"/><path class="xgrid crisp" transform="translate(502.86589676290464,0)" d="M0,23.543307086614167v342.9133858267717" style="stroke: rgb(0, 0, 0); stroke-opacity: 0.1; stroke-width: 0.5px;"/><path class="xgrid crisp" transform="translate(582.0358967629046,0)" d="M0,23.543307086614167v342.9133858267717" style="stroke: rgb(0, 0, 0); stroke-opacity: 0.1; stroke-width: 0.5px;"/></g><g class="y"><path class="ygrid crisp" transform="translate(0,356.87330708661415)" d="M92.82589676290462,0h503.2370953630796" style="stroke: rgb(0, 0, 0); stroke-opacity: 0.1; stroke-width: 0.5px;"/><path class="ygrid crisp" transform="translate(0,302.88330708661414)" d="M92.82589676290462,0h503.2370953630796" style="stroke: rgb(0, 0, 0); stroke-opacity: 0.1; stroke-width: 0.5px;"/><path class="ygrid crisp" transform="translate(0,248.90330708661418)" d="M92.82589676290462,0h503.2370953630796" style="stroke: rgb(0, 0, 0); stroke-opacity: 0.1; stroke-width: 0.5px;"/><path class="ygrid crisp" transform="translate(0,194.91330708661417)" d="M92.82589676290462,0h503.2370953630796" style="stroke: rgb(0, 0, 0); stroke-opacity: 0.1; stroke-width: 0.5px;"/><path class="ygrid crisp" transform="translate(0,140.93330708661418)" d="M92.82589676290462,0h503.2370953630796" style="stroke: rgb(0, 0, 0); stroke-opacity: 0.1; stroke-width: 0.5px;"/><path class="ygrid crisp" transform="translate(0,86.94330708661417)" d="M92.82589676290462,0h503.2370953630796" style="stroke: rgb(0, 0, 0); stroke-opacity: 0.1; stroke-width: 0.5px;"/><path class="ygrid crisp" transform="translate(0,32.963307086614165)" d="M92.82589676290462,0h503.2370953630796" style="stroke: rgb(0, 0, 0); stroke-opacity: 0.1; stroke-width: 0.5px;"/></g></g><g class="zerolinelayer"/><path class="xlines-below"/><path class="ylines-below"/><g class="overlines-below"/><g class="xaxislayer-below"/><g class="yaxislayer-below"/><g class="overaxes-below"/><g class="plot" transform="translate(92.82589676290462,23.543307086614167)" clip-path="url(#clip58d8c6xyplot)"><g class="scatterlayer mlayer"><g class="trace scatter tracee4c631" style="stroke-miterlimit: 2; opacity: 1;"><g class="fills"/><g class="errorbars"/><g class="lines"><path class="js-line" d="M14.85,171.37L15.58,184.11L15.61,184.39L17.65,196.22L17.72,196.5L21.06,208.2L21.16,208.47L25.67,219.7L25.8,219.96L31.37,230.68L31.52,230.93L39.09,242.59L39.27,242.84L50.5,256.64L50.72,256.88L61.94,268.09L62.19,268.31L71.84,276.54L72.11,276.75L84.85,286.08L85.14,286.28L103.33,297.34L103.64,297.52L123.76,307.38L124.1,307.53L142.01,314.62L142.37,314.75L170.62,323.24L171,323.34L195.5,328.39L195.89,328.46L213.8,330.93L214.2,330.98L240.04,332.83L240.44,332.85L266.02,332.75L266.43,332.74L291.44,330.78L291.84,330.73L309.33,328.23L309.73,328.16L333.77,323.09L334.15,323L357.61,316.08L357.97,315.96L379.51,307.63L379.85,307.48L396.14,299.69L396.46,299.52L413.79,289.48L414.09,289.3L430.69,277.54L430.96,277.33L443.11,266.95L443.35,266.73L453.55,256.4L453.76,256.17L462.93,245.07L463.11,244.83L470.78,233.52L470.93,233.26L476.37,223.42L476.5,223.16L481.77,210.95L481.87,210.68L486.57,194.4L486.62,194.13L488.48,182.02L488.5,181.74L488.99,170.68L488.99,170.4L488.24,158.51L488.21,158.23L486.15,146.41L486.08,146.14L482.72,134.47L482.63,134.2L478.12,123L478,122.73L469.34,106.93L469.17,106.67L460.66,94.72L460.46,94.48L450.5,83.06L450.27,82.83L438.94,72.03L438.69,71.81L426.07,61.69L425.79,61.49L411.68,51.94L411.38,51.75L391.9,40.9L391.57,40.73L374.32,32.92L373.98,32.78L358.68,27.03L358.32,26.91L342.44,21.96L342.07,21.86L323.76,17.32L323.37,17.23L300.21,13.1L299.81,13.04L272.49,10.31L272.09,10.29L246.11,9.75L245.7,9.76L221.01,11.09L220.61,11.13L203.4,13.13L203,13.19L179.06,17.53L178.67,17.61L153.31,24.35L152.94,24.46L130.65,32.46L130.3,32.6L113.66,40.05L113.33,40.21L97.68,48.6L97.38,48.78L82.55,58.25L82.26,58.45L66.65,70.49L66.4,70.71L52.66,83.77L52.44,84L41.08,97.45L40.9,97.7L34.31,107.22L34.15,107.47L26.54,121.21L26.42,121.47L21.44,133.48L21.34,133.75L17.28,148.18L17.23,148.45L15.37,160.59L15.34,160.86L14.92,167.23" style="vector-effect: non-scaling-stroke; fill: none; stroke: rgb(0, 154, 250); stroke-opacity: 1; stroke-width: 1px; opacity: 1;"/></g><g class="points"/><g class="text"/></g><g class="trace scatter tracee81cd8" style="stroke-miterlimit: 2; opacity: 1;"><g class="fills"/><g class="errorbars"/><g class="lines"><path class="js-line" d="M14.24,171.37L14.96,182.21L15,182.5L17.51,194.95L17.58,195.22L21.91,208.96L22.01,209.22L27.75,223.51L27.87,223.77L32.77,233.47L32.91,233.73L39.39,243.89L39.58,244.15L47.7,254.16L47.92,254.41L58.46,264.83L58.71,265.05L71.08,275.38L71.34,275.58L92.18,290.7L92.47,290.9L108.18,300.33L108.51,300.5L122.51,307.3L122.86,307.46L142.48,314.86L142.85,314.98L164.93,321.37L165.29,321.46L188,326.84L188.38,326.92L210.47,330.81L210.88,330.86L227,332.55L227.42,332.58L252.79,333.12L253.2,333.11L276.74,331.79L277.13,331.76L315.06,327.25L315.45,327.19L336.87,322.71L337.26,322.61L354.51,317.42L354.88,317.3L373.28,310.06L373.62,309.91L388.98,302.79L389.3,302.63L405.95,294.01L406.26,293.84L421.5,284.66L421.8,284.46L436.43,273.49L436.69,273.26L446.45,264.05L446.68,263.82L459.23,249.11L459.41,248.87L471.97,230.94L472.12,230.69L478.68,219.08L478.81,218.82L483.81,206.78L483.9,206.5L486.83,194.97L486.88,194.69L488.27,182.45L488.28,182.18L488.41,170L488.4,169.74L487.67,157.69L487.64,157.42L486.06,146L486.01,145.72L483.17,134.35L483.08,134.07L478.95,123.56L478.82,123.29L472.52,111.9L472.36,111.64L465.09,101.2L464.9,100.96L453.61,87.13L453.4,86.9L441.28,74.1L441.05,73.87L426.57,61.5L426.29,61.29L414.08,53.04L413.77,52.85L394.24,42.33L393.91,42.17L372.8,32.75L372.46,32.61L353,25.15L352.64,25.02L331.01,18.57L330.62,18.47L308.09,14.1L307.69,14.05L287.26,11.74L286.87,11.71L266.46,10.41L266.06,10.39L231.17,10.13L230.76,10.15L215.39,11.25L214.98,11.29L198.14,13.63L197.73,13.7L177.79,17.94L177.41,18.03L143.99,27.75L143.64,27.87L122.27,35.77L121.92,35.91L105.12,43.92L104.79,44.1L90.43,52.78L90.13,52.98L77.92,61.86L77.65,62.06L58.22,78.66L57.99,78.88L48.84,87.88L48.61,88.12L39.83,98.35L39.64,98.6L32.44,109.26L32.29,109.53L27.55,118.62L27.43,118.89L23.24,129.32L23.15,129.58L18.02,147.27L17.96,147.53L15.02,163.51L14.98,163.79L14.68,166.86" style="vector-effect: non-scaling-stroke; fill: none; stroke: rgb(227, 111, 71); stroke-opacity: 1; stroke-width: 1px; opacity: 1;"/></g><g class="points"/><g class="text"/></g></g></g><g class="overplot"/><path class="xlines-above crisp" d="M91.82589676290462,366.95669291338584H596.0629921259842" style="fill: none; stroke-width: 1px; stroke: rgb(0, 0, 0); stroke-opacity: 1;"/><path class="ylines-above crisp" d="M92.32589676290462,23.543307086614167V366.45669291338584" style="fill: none; stroke-width: 1px; stroke: rgb(0, 0, 0); stroke-opacity: 1;"/><g class="overlines-above"/><g class="xaxislayer-above"><path class="xtick ticks crisp" d="M0,366.45669291338584v-5" transform="translate(107.03589676290463,0)" style="stroke: rgb(0, 0, 0); stroke-opacity: 1; stroke-width: 1px;"/><path class="xtick ticks crisp" d="M0,366.45669291338584v-5" transform="translate(186.20589676290462,0)" style="stroke: rgb(0, 0, 0); stroke-opacity: 1; stroke-width: 1px;"/><path class="xtick ticks crisp" d="M0,366.45669291338584v-5" transform="translate(265.36589676290464,0)" style="stroke: rgb(0, 0, 0); stroke-opacity: 1; stroke-width: 1px;"/><path class="xtick ticks crisp" d="M0,366.45669291338584v-5" transform="translate(344.5358967629046,0)" style="stroke: rgb(0, 0, 0); stroke-opacity: 1; stroke-width: 1px;"/><path class="xtick ticks crisp" d="M0,366.45669291338584v-5" transform="translate(423.6958967629046,0)" style="stroke: rgb(0, 0, 0); stroke-opacity: 1; stroke-width: 1px;"/><path class="xtick ticks crisp" d="M0,366.45669291338584v-5" transform="translate(502.86589676290464,0)" style="stroke: rgb(0, 0, 0); stroke-opacity: 1; stroke-width: 1px;"/><path class="xtick ticks crisp" d="M0,366.45669291338584v-5" transform="translate(582.0358967629046,0)" style="stroke: rgb(0, 0, 0); stroke-opacity: 1; stroke-width: 1px;"/><g class="xtick"><text text-anchor="middle" x="0" y="380.6566929133858" transform="translate(107.03589676290463,0)" style="font-family: sans-serif; font-size: 11px; fill: rgb(0, 0, 0); fill-opacity: 1; white-space: pre; opacity: 1;">-1.50×10¹¹</text></g><g class="xtick"><text text-anchor="middle" x="0" y="380.6566929133858" style="font-family: sans-serif; font-size: 11px; fill: rgb(0, 0, 0); fill-opacity: 1; white-space: pre; opacity: 1;" transform="translate(186.20589676290462,0)">-1.00×10¹¹</text></g><g class="xtick"><text text-anchor="middle" x="0" y="380.6566929133858" style="font-family: sans-serif; font-size: 11px; fill: rgb(0, 0, 0); fill-opacity: 1; white-space: pre; opacity: 1;" transform="translate(265.36589676290464,0)">-5.00×10¹⁰</text></g><g class="xtick"><text text-anchor="middle" x="0" y="380.6566929133858" style="font-family: sans-serif; font-size: 11px; fill: rgb(0, 0, 0); fill-opacity: 1; white-space: pre; opacity: 1;" transform="translate(344.5358967629046,0)">0</text></g><g class="xtick"><text text-anchor="middle" x="0" y="380.6566929133858" style="font-family: sans-serif; font-size: 11px; fill: rgb(0, 0, 0); fill-opacity: 1; white-space: pre; opacity: 1;" transform="translate(423.6958967629046,0)">5.00×10¹⁰</text></g><g class="xtick"><text text-anchor="middle" x="0" y="380.6566929133858" style="font-family: sans-serif; font-size: 11px; fill: rgb(0, 0, 0); fill-opacity: 1; white-space: pre; opacity: 1;" transform="translate(502.86589676290464,0)">1.00×10¹¹</text></g><g class="xtick"><text text-anchor="middle" x="0" y="380.6566929133858" style="font-family: sans-serif; font-size: 11px; fill: rgb(0, 0, 0); fill-opacity: 1; white-space: pre; opacity: 0;" transform="translate(582.0358967629046,0)">1.50×10¹¹</text></g></g><g class="yaxislayer-above"><path class="ytick ticks crisp" d="M92.82589676290462,0h5" transform="translate(0,356.87330708661415)" style="stroke: rgb(0, 0, 0); stroke-opacity: 1; stroke-width: 1px;"/><path class="ytick ticks crisp" d="M92.82589676290462,0h5" transform="translate(0,302.88330708661414)" style="stroke: rgb(0, 0, 0); stroke-opacity: 1; stroke-width: 1px;"/><path class="ytick ticks crisp" d="M92.82589676290462,0h5" transform="translate(0,248.90330708661418)" style="stroke: rgb(0, 0, 0); stroke-opacity: 1; stroke-width: 1px;"/><path class="ytick ticks crisp" d="M92.82589676290462,0h5" transform="translate(0,194.91330708661417)" style="stroke: rgb(0, 0, 0); stroke-opacity: 1; stroke-width: 1px;"/><path class="ytick ticks crisp" d="M92.82589676290462,0h5" transform="translate(0,140.93330708661418)" style="stroke: rgb(0, 0, 0); stroke-opacity: 1; stroke-width: 1px;"/><path class="ytick ticks crisp" d="M92.82589676290462,0h5" transform="translate(0,86.94330708661417)" style="stroke: rgb(0, 0, 0); stroke-opacity: 1; stroke-width: 1px;"/><path class="ytick ticks crisp" d="M92.82589676290462,0h5" transform="translate(0,32.963307086614165)" style="stroke: rgb(0, 0, 0); stroke-opacity: 1; stroke-width: 1px;"/><g class="ytick"><text text-anchor="end" x="89.62589676290462" y="3.8499999999999996" transform="translate(0,356.87330708661415)" style="font-family: sans-serif; font-size: 11px; fill: rgb(0, 0, 0); fill-opacity: 1; white-space: pre; opacity: 1;">-1.50×10¹¹</text></g><g class="ytick"><text text-anchor="end" x="89.62589676290462" y="3.8499999999999996" style="font-family: sans-serif; font-size: 11px; fill: rgb(0, 0, 0); fill-opacity: 1; white-space: pre; opacity: 1;" transform="translate(0,302.88330708661414)">-1.00×10¹¹</text></g><g class="ytick"><text text-anchor="end" x="89.62589676290462" y="3.8499999999999996" style="font-family: sans-serif; font-size: 11px; fill: rgb(0, 0, 0); fill-opacity: 1; white-space: pre; opacity: 1;" transform="translate(0,248.90330708661418)">-5.00×10¹⁰</text></g><g class="ytick"><text text-anchor="end" x="89.62589676290462" y="3.8499999999999996" style="font-family: sans-serif; font-size: 11px; fill: rgb(0, 0, 0); fill-opacity: 1; white-space: pre; opacity: 1;" transform="translate(0,194.91330708661417)">0</text></g><g class="ytick"><text text-anchor="end" x="89.62589676290462" y="3.8499999999999996" style="font-family: sans-serif; font-size: 11px; fill: rgb(0, 0, 0); fill-opacity: 1; white-space: pre; opacity: 1;" transform="translate(0,140.93330708661418)">5.00×10¹⁰</text></g><g class="ytick"><text text-anchor="end" x="89.62589676290462" y="3.8499999999999996" style="font-family: sans-serif; font-size: 11px; fill: rgb(0, 0, 0); fill-opacity: 1; white-space: pre; opacity: 1;" transform="translate(0,86.94330708661417)">1.00×10¹¹</text></g><g class="ytick"><text text-anchor="end" x="89.62589676290462" y="3.8499999999999996" style="font-family: sans-serif; font-size: 11px; fill: rgb(0, 0, 0); fill-opacity: 1; white-space: pre; opacity: 1;" transform="translate(0,32.963307086614165)">1.50×10¹¹</text></g></g><g class="overaxes-above"/></g></g><g class="polarlayer"/><g class="ternarylayer"/><g class="geolayer"/><g class="funnelarealayer"/><g class="pielayer"/><g class="iciclelayer"/><g class="treemaplayer"/><g class="sunburstlayer"/><g class="glimages"/><defs id="topdefs-58d8c6"><g class="clips"/><clipPath id="legend58d8c6"><rect width="57" height="48" x="1" y="1"/></clipPath></defs><g class="layer-above"><g class="imagelayer"/><g class="shapelayer"/></g><g class="infolayer"><g class="legend" pointer-events="all" transform="translate(541,20)"><rect class="bg" shape-rendering="crispEdges" width="58" height="49" x="0.5" y="0.5" style="stroke: rgb(0, 0, 0); stroke-opacity: 1; fill: rgb(255, 255, 255); fill-opacity: 1; stroke-width: 1px;"/><g class="scrollbox" transform="" clip-path="url(#legend58d8c6)"><g class="groups"><g class="traces" transform="translate(1,15.5)" style="opacity: 1;"><text class="legendtext" text-anchor="start" x="40" y="4.29" style="font-family: sans-serif; font-size: 11px; fill: rgb(0, 0, 0); fill-opacity: 1; white-space: pre;">y1</text><g class="layers" style="opacity: 1;"><g class="legendfill"/><g class="legendlines"><path class="js-line" d="M5,0h30" style="fill: none; stroke: rgb(0, 154, 250); stroke-opacity: 1; stroke-width: 1px;"/></g><g class="legendsymbols"><g class="legendpoints"/></g></g><rect class="legendtoggle" x="0" y="-9.5" width="51.625" height="19" style="fill: rgb(0, 0, 0); fill-opacity: 0;"/></g><g class="traces" transform="translate(1,34.5)" style="opacity: 1;"><text class="legendtext" text-anchor="start" x="40" y="4.29" style="font-family: sans-serif; font-size: 11px; fill: rgb(0, 0, 0); fill-opacity: 1; white-space: pre;">y2</text><g class="layers" style="opacity: 1;"><g class="legendfill"/><g class="legendlines"><path class="js-line" d="M5,0h30" style="fill: none; stroke: rgb(227, 111, 71); stroke-opacity: 1; stroke-width: 1px;"/></g><g class="legendsymbols"><g class="legendpoints"/></g></g><rect class="legendtoggle" x="0" y="-9.5" width="51.625" height="19" style="fill: rgb(0, 0, 0); fill-opacity: 0;"/></g></g></g><rect class="scrollbar" rx="20" ry="3" width="0" height="0" x="0" y="0" style="fill: rgb(128, 139, 164); fill-opacity: 1;"/></g><g class="g-gtitle"/><g class="g-xtitle"/><g class="g-ytitle"/></g></svg>