<svg class="main-svg" xmlns="http://www.w3.org/2000/svg" xmlns:xlink="http://www.w3.org/1999/xlink" width="600" height="400" style=""><rect x="0" y="0" width="600" height="400" style="fill: rgb(255, 255, 255); fill-opacity: 1;"/><defs id="defs-ce4d76"><g class="clips"><clipPath id="clipce4d76xyplot" class="plotclip"><rect width="565.4593175853018" height="342.9133858267717"/></clipPath><clipPath class="axesclip" id="clipce4d76x"><rect x="30.603674540682416" y="0" width="565.4593175853018" height="400"/></clipPath><clipPath class="axesclip" id="clipce4d76y"><rect x="0" y="23.543307086614167" width="600" height="342.9133858267717"/></clipPath><clipPath class="axesclip" id="clipce4d76xy"><rect x="30.603674540682416" y="23.543307086614167" width="565.4593175853018" height="342.9133858267717"/></clipPath></g><g class="gradients"/><g class="patterns"/></defs><g class="bglayer"/><g class="layer-below"><g class="imagelayer"/><g class="shapelayer"/></g><g class="cartesianlayer"><g class="subplot xy"><g class="layer-subplot"><g class="shapelayer"/><g class="imagelayer"/></g><g class="gridlayer"><g class="x"><path class="xgrid crisp" transform="translate(46.60367454068242,0)" d="M0,23.543307086614167v342.9133858267717" style="stroke: rgb(0, 0, 0); stroke-opacity: 0.1; stroke-width: 0.5px;"/><path class="xgrid crisp" transform="translate(148.3136745406824,0)" d="M0,23.543307086614167v342.9133858267717" style="stroke: rgb(0, 0, 0); stroke-opacity: 0.1; stroke-width: 0.5px;"/><path class="xgrid crisp" transform="translate(250.01367454068242,0)" d="M0,23.543307086614167v342.9133858267717" style="stroke: rgb(0, 0, 0); stroke-opacity: 0.1; stroke-width: 0.5px;"/><path class="xgrid crisp" transform="translate(351.7236745406824,0)" d="M0,23.543307086614167v342.9133858267717" style="stroke: rgb(0, 0, 0); stroke-opacity: 0.1; stroke-width: 0.5px;"/><path class="xgrid crisp" transform="translate(453.4236745406824,0)" d="M0,23.543307086614167v342.9133858267717" style="stroke: rgb(0, 0, 0); stroke-opacity: 0.1; stroke-width: 0.5px;"/><path class="xgrid crisp" transform="translate(555.1336745406824,0)" d="M0,23.543307086614167v342.9133858267717" style="stroke: rgb(0, 0, 0); stroke-opacity: 0.1; stroke-width: 0.5px;"/></g><g class="y"><path class="ygrid crisp" transform="translate(0,356.75330708661414)" d="M30.603674540682416,0h565.4593175853018" style="stroke: rgb(0, 0, 0); stroke-opacity: 0.1; stroke-width: 0.5px;"/><path class="ygrid crisp" transform="translate(0,275.8733070866142)" d="M30.603674540682416,0h565.4593175853018" style="stroke: rgb(0, 0, 0); stroke-opacity: 0.1; stroke-width: 0.5px;"/><path class="ygrid crisp" transform="translate(0,194.99330708661415)" d="M30.603674540682416,0h565.4593175853018" style="stroke: rgb(0, 0, 0); stroke-opacity: 0.1; stroke-width: 0.5px;"/><path class="ygrid crisp" transform="translate(0,114.11330708661416)" d="M30.603674540682416,0h565.4593175853018" style="stroke: rgb(0, 0, 0); stroke-opacity: 0.1; stroke-width: 0.5px;"/><path class="ygrid crisp" transform="translate(0,33.22330708661417)" d="M30.603674540682416,0h565.4593175853018" style="stroke: rgb(0, 0, 0); stroke-opacity: 0.1; stroke-width: 0.5px;"/></g></g><g class="zerolinelayer"/><path class="xlines-below"/><path class="ylines-below"/><g class="overlines-below"/><g class="xaxislayer-below"/><g class="yaxislayer-below"/><g class="overaxes-below"/><g class="plot" transform="translate(30.603674540682416,23.543307086614167)" clip-path="url(#clipce4d76xyplot)"><g class="scatterlayer mlayer"><g class="trace scatter tracec898de" style="stroke-miterlimit: 2; opacity: 1;"><g class="fills"/><g class="errorbars"/><g class="lines"><path class="js-line" d="M16,311.53L16.89,299.19L16.89,299.18L20.08,236.34L20.08,236.31L21.54,201.03L21.54,201L22.65,173.13L22.65,173.1L23.76,145.19L23.76,145.16L24.97,115.75L24.97,115.72L27.09,69.79L27.09,69.77L31,17.05L31,17.05L31.01,17.04L32.67,10.19L32.67,10.19L32.68,10.19L33.31,10.1L33.53,10.39L33.53,10.4L34.46,13.34L34.46,13.34L34.46,13.35L36.18,25.72L36.18,25.73L37.64,42.33L37.64,42.35L43.45,145.12L43.45,145.15L45.85,195.49L45.85,195.51L47.85,236.71L47.85,236.73L54,327.21L54,327.21L54.01,327.22L55.53,332.99L55.53,332.99L55.54,332.99L56.16,332.74L56.25,332.55L56.26,332.55L57.28,328.28L57.28,328.28L57.28,328.27L59.26,307.98L59.26,307.96L59.99,296.83L59.99,296.81L62.31,250.84L62.31,250.82L63.86,214.05L63.86,214.02L64.99,185.82L64.99,185.79L66.11,157.74L66.11,157.71L67.31,128.44L67.31,128.41L69.25,85.42L69.25,85.4L74.15,16.99L74.16,16.99L75.82,10.1L75.82,10.1L75.83,10.1L76.54,9.78L76.76,10.01L76.77,10.01L77.85,13.17L77.85,13.17L77.85,13.18L79.71,26.23L79.71,26.24L81.24,43.37L81.24,43.39L86.07,125.96L86.07,125.98L88.4,175.21L88.4,175.23L90.06,211.36L90.06,211.38L92.55,263.19L92.55,263.21L97.11,327.57L97.12,327.58L98.61,333.18L98.61,333.18L98.62,333.18L99.28,332.56L99.28,332.55L99.28,332.54L100.18,328.54L100.18,328.53L101.22,319.52L101.22,319.51L102.27,305.97L102.27,305.96L105.01,253.7L105.01,253.68L106.6,216.22L106.6,216.2L107.78,187.29L107.78,187.27L108.96,158.31L108.96,158.29L110.27,127.41L110.27,127.38L112.77,75.43L112.77,75.41L117.13,18.7L117.14,18.69L119,10.31L119.01,10.31L119.87,9.8L120.07,9.99L120.07,10L121.07,12.56L121.07,12.56L121.07,12.57L122.47,20.72L122.47,20.73L124.57,42.09L124.57,42.1L129.31,123.04L129.31,123.06L131.91,179.96L131.91,179.98L133.7,220.55L133.7,220.57L135.88,267.41L135.88,267.43L140.21,328.61L140.22,328.61L141.56,333.04L141.56,333.04L141.57,333.04L142.21,332.2L142.21,332.2L142.21,332.19L143.27,326.66L143.27,326.65L144.88,308.94L144.88,308.92L148.43,240.69L148.43,240.67L150.38,194.78L150.38,194.76L151.67,164.15L151.67,164.12L153.47,123.32L153.47,123.3L159.87,23.02L159.88,23.01L161.21,14.21L161.22,14.21L162.81,10.03L162.81,10.03L162.82,10.03L163.65,10.62L163.65,10.62L163.65,10.63L164.81,14.61L164.81,14.61L164.81,14.62L166.51,26.91L166.51,26.92L168.01,43.84L168.01,43.86L172.94,132.75L172.94,132.77L174.68,172.56L174.68,172.59L176.6,217.91L176.6,217.93L179.06,272.48L179.06,272.5L183.11,328.81L183.12,328.82L184.39,332.75L184.39,332.75L184.4,332.75L185.05,331.81L185.05,331.81L185.06,331.8L186.09,326.34L186.09,326.33L187.75,308.27L187.75,308.25L191.02,248.18L191.02,248.16L192.56,213.87L192.56,213.84L194.31,173.92L194.31,173.9L196.29,130.23L196.29,130.21L198.74,82.24L198.74,82.22L203.39,21.56L203.4,21.55L204.66,13.84L204.66,13.84L204.67,13.83L206.14,10.28L206.14,10.28L206.15,10.28L206.96,10.91L206.96,10.92L206.97,10.93L208.26,15.8L208.26,15.81L209.71,26.86L209.71,26.87L211.13,43.16L211.13,43.17L214.95,111.12L214.95,111.15L216.43,144.53L216.43,144.55L217.68,174.56L217.68,174.58L218.86,203.54L218.86,203.56L220.1,233.4L220.1,233.42L225.7,327.42L225.71,327.43L227.14,332.58L227.14,332.58L227.15,332.58L227.79,331.9L227.79,331.88L227.8,331.87L228.96,326.05L228.96,326.05L228.96,326.04L230.73,307.16L230.73,307.14L231.51,295.63L231.51,295.61L235.14,225.68L235.14,225.65L236.78,189.84L236.78,189.81L238.44,153.73L238.44,153.71L240.44,112.51L240.44,112.49L246.4,24.12L246.41,24.11L247.79,14.62L247.79,14.62L247.8,14.61L249.42,10.28L249.42,10.28L249.43,10.28L250.21,10.97L250.21,10.98L251.4,15.63L251.4,15.64L252.76,26.25L252.76,26.26L254.07,41.75L254.07,41.77L257.52,104.38L257.52,104.4L259.18,142.9L259.18,142.92L260.34,171.59L260.34,171.61L261.45,199.53L261.45,199.56L262.62,228.36L262.62,228.38L264.02,260.63L264.02,260.66L268.76,329.11L268.76,329.11L268.77,329.12L270,332.71L270,332.71L270.01,332.71L270.7,331.96L270.7,331.95L271.93,325.93L271.93,325.92L273.88,305.72L273.88,305.7L278.94,214.3L278.94,214.27L282,149.6L282,149.58L284.18,105.68L284.18,105.66L289.89,22.22L289.9,22.21L291.23,13.41L291.24,13.41L292.67,10.03L292.67,10.03L292.68,10.03L293.43,10.94L293.43,10.95L294.75,17.24L294.75,17.25L296.71,37.52L296.71,37.54L297.49,49.05L297.49,49.07L300.53,109.56L300.53,109.58L302.26,151.69L302.26,151.71L303.54,184.15L303.54,184.18L304.65,212.1L304.65,212.13L305.9,242.15L305.9,242.17L307.73,280.87L307.73,280.89L311.48,328.46L311.49,328.47L312.84,332.94L312.84,332.94L312.85,332.94L313.54,332.57L313.58,332.48L313.59,332.47L314.73,327.94L314.73,327.94L314.73,327.93L317.2,304.16L317.2,304.14L318.09,291.81L318.09,291.79L321.91,223.3L321.91,223.28L324.45,170.69L324.45,170.67L326.38,130.49L326.38,130.47L328.9,81.45L328.9,81.43L333.74,17.04L333.75,17.04L335.44,9.94L335.44,9.94L335.45,9.94L336.05,9.89L336.25,10.19L336.26,10.2L337.23,13.81L337.23,13.82L338.5,23.96L338.5,23.97L339.65,38.25L339.65,38.27L343.03,103.92L343.03,103.94L344.74,145.73L344.74,145.76L345.82,173.22L345.82,173.24L347.13,206.19L347.13,206.22L348.4,236.5L348.4,236.53L354.04,325.77L354.05,325.78L355.75,332.95L355.76,332.95L356.4,333.11L356.63,332.83L356.63,332.82L357.6,329.83L357.6,329.83L357.6,329.82L358.76,322.56L358.76,322.55L360.71,302.3L360.71,302.29L366.69,197.37L366.69,197.35L368.54,158.39L368.54,158.37L370.38,119.53L370.38,119.51L376.65,18.85L376.66,18.84L377.91,11.31L377.91,11.31L377.92,11.3L378.87,9.71L379.07,9.86L379.08,9.86L379.89,12.18L379.89,12.18L379.89,12.19L381.33,23.17L381.33,23.18L382.43,37.09L382.43,37.11L385.2,89.84L385.2,89.86L386.76,126.79L386.76,126.82L387.89,155.02L387.89,155.05L389.02,183.24L389.02,183.27L390.24,212.84L390.24,212.86L396.64,321.37L396.65,321.37L397.96,329.85L397.96,329.85L397.97,329.86L399.38,333.1L399.38,333.1L399.39,333.1L400.19,332.3L400.19,332.29L401.41,327.56L401.41,327.56L401.41,327.55L402.92,316.18L402.92,316.17L404.46,298.99L404.46,298.97L409.33,215.91L409.33,215.89L411.63,167.19L411.63,167.17L413.67,122.56L413.67,122.54L416.36,67.55L416.36,67.53L420.49,13.84L420.49,13.84L420.5,13.83L421.77,9.95L421.77,9.95L421.78,9.95L422.43,10.79L422.43,10.79L422.44,10.8L423.51,16.37L423.51,16.38L425.12,34.1L425.12,34.11L428.07,89.43L428.07,89.45L429.7,127.5L429.7,127.52L430.9,156.77L430.9,156.8L432.13,186.49L432.13,186.51L433.53,218.73L433.53,218.76L435.52,259.87L435.52,259.89L439.94,320.68L439.95,320.69L441.25,329.01L441.25,329.01L441.26,329.02L442.77,332.77L442.77,332.77L442.78,332.77L443.6,332.17L443.6,332.16L444.77,328.16L444.77,328.16L444.77,328.15L446.51,315.66L446.51,315.65L448.07,298.32L448.07,298.31L448.98,285.83L448.98,285.81L452.7,218.83L452.7,218.81L455.28,162.31L455.28,162.28L457.04,122.13L457.04,122.11L463.32,15.69L463.33,15.68L464.8,10.24L464.8,10.24L464.81,10.24L465.46,11.08L465.46,11.08L465.46,11.09L466.51,16.58L466.51,16.58L466.51,16.59L468.13,34.34L468.13,34.36L471.78,104.13L471.78,104.16L473.46,142.98L473.46,143L475.52,190.7L475.52,190.73L477.76,238.48L477.76,238.5L483.23,318.48L483.24,318.49L484.61,327.84L484.61,327.84L484.62,327.85L486.31,332.56L486.32,332.56L487.17,332.02L487.17,332.02L487.17,332.01L488.22,328.67L488.22,328.67L488.22,328.66L489.43,321.22L489.43,321.21L491.45,300.43L491.45,300.42L492.35,288L492.35,287.99L495.8,225.12L495.8,225.1L497.69,182.92L497.69,182.89L499.26,145.75L499.26,145.72L501.24,99.33L501.24,99.31L506.62,14.17L506.63,14.16L507.9,10.27L507.9,10.27L507.91,10.27L508.56,11.21L508.56,11.21L508.56,11.22L509.61,16.72L509.61,16.72L509.61,16.73L511.3,35.04L511.3,35.05L515.37,111.37L515.37,111.4L516.93,146.01L516.93,146.04L518.49,180.68L518.49,180.7L520.29,218.95L520.29,218.97L527.13,320.86L527.13,320.86L527.14,320.87L528.42,328.89L528.42,328.89L528.43,328.9L529.95,332.71L529.95,332.71L529.96,332.71L530.77,332.11L530.77,332.11L530.77,332.1L531.89,328.2L531.89,328.2L531.89,328.19L533.5,316.34L533.5,316.33L534.9,300.17L534.9,300.15L538.65,233.23L538.65,233.2L540.11,200.09L540.11,200.06L541.86,157.61L541.86,157.58L543.03,128.76L543.03,128.73L545.06,81.52L545.06,81.5L549.46,15.25" style="vector-effect: non-scaling-stroke; fill: none; stroke: rgb(0, 154, 250); stroke-opacity: 1; stroke-width: 1px; opacity: 1;"/></g><g class="points"/><g class="text"/></g></g></g><g class="overplot"/><path class="xlines-above crisp" d="M29.603674540682416,366.95669291338584H596.0629921259842" style="fill: none; stroke-width: 1px; stroke: rgb(0, 0, 0); stroke-opacity: 1;"/><path class="ylines-above crisp" d="M30.103674540682416,23.543307086614167V366.45669291338584" style="fill: none; stroke-width: 1px; stroke: rgb(0, 0, 0); stroke-opacity: 1;"/><g class="overlines-above"/><g class="xaxislayer-above"><path class="xtick ticks crisp" d="M0,366.45669291338584v-5" transform="translate(46.60367454068242,0)" style="stroke: rgb(0, 0, 0); stroke-opacity: 1; stroke-width: 1px;"/><path class="xtick ticks crisp" d="M0,366.45669291338584v-5" transform="translate(148.3136745406824,0)" style="stroke: rgb(0, 0, 0); stroke-opacity: 1; stroke-width: 1px;"/><path class="xtick ticks crisp" d="M0,366.45669291338584v-5" transform="translate(250.01367454068242,0)" style="stroke: rgb(0, 0, 0); stroke-opacity: 1; stroke-width: 1px;"/><path class="xtick ticks crisp" d="M0,366.45669291338584v-5" transform="translate(351.7236745406824,0)" style="stroke: rgb(0, 0, 0); stroke-opacity: 1; stroke-width: 1px;"/><path class="xtick ticks crisp" d="M0,366.45669291338584v-5" transform="translate(453.4236745406824,0)" style="stroke: rgb(0, 0, 0); stroke-opacity: 1; stroke-width: 1px;"/><path class="xtick ticks crisp" d="M0,366.45669291338584v-5" transform="translate(555.1336745406824,0)" style="stroke: rgb(0, 0, 0); stroke-opacity: 1; stroke-width: 1px;"/><g class="xtick"><text text-anchor="middle" x="0" y="380.6566929133858" transform="translate(46.60367454068242,0)" style="font-family: sans-serif; font-size: 11px; fill: rgb(0, 0, 0); fill-opacity: 1; white-space: pre; opacity: 1;">0</text></g><g class="xtick"><text text-anchor="middle" x="0" y="380.6566929133858" style="font-family: sans-serif; font-size: 11px; fill: rgb(0, 0, 0); fill-opacity: 1; white-space: pre; opacity: 1;" transform="translate(148.3136745406824,0)">1.0×10⁵</text></g><g class="xtick"><text text-anchor="middle" x="0" y="380.6566929133858" style="font-family: sans-serif; font-size: 11px; fill: rgb(0, 0, 0); fill-opacity: 1; white-space: pre; opacity: 1;" transform="translate(250.01367454068242,0)">2.0×10⁵</text></g><g class="xtick"><text text-anchor="middle" x="0" y="380.6566929133858" style="font-family: sans-serif; font-size: 11px; fill: rgb(0, 0, 0); fill-opacity: 1; white-space: pre; opacity: 1;" transform="translate(351.7236745406824,0)">3.0×10⁵</text></g><g class="xtick"><text text-anchor="middle" x="0" y="380.6566929133858" style="font-family: sans-serif; font-size: 11px; fill: rgb(0, 0, 0); fill-opacity: 1; white-space: pre; opacity: 1;" transform="translate(453.4236745406824,0)">4.0×10⁵</text></g><g class="xtick"><text text-anchor="middle" x="0" y="380.6566929133858" style="font-family: sans-serif; font-size: 11px; fill: rgb(0, 0, 0); fill-opacity: 1; white-space: pre; opacity: 1;" transform="translate(555.1336745406824,0)">5.0×10⁵</text></g></g><g class="yaxislayer-above"><path class="ytick ticks crisp" d="M30.603674540682416,0h5" transform="translate(0,356.75330708661414)" style="stroke: rgb(0, 0, 0); stroke-opacity: 1; stroke-width: 1px;"/><path class="ytick ticks crisp" d="M30.603674540682416,0h5" transform="translate(0,275.8733070866142)" style="stroke: rgb(0, 0, 0); stroke-opacity: 1; stroke-width: 1px;"/><path class="ytick ticks crisp" d="M30.603674540682416,0h5" transform="translate(0,194.99330708661415)" style="stroke: rgb(0, 0, 0); stroke-opacity: 1; stroke-width: 1px;"/><path class="ytick ticks crisp" d="M30.603674540682416,0h5" transform="translate(0,114.11330708661416)" style="stroke: rgb(0, 0, 0); stroke-opacity: 1; stroke-width: 1px;"/><path class="ytick ticks crisp" d="M30.603674540682416,0h5" transform="translate(0,33.22330708661417)" style="stroke: rgb(0, 0, 0); stroke-opacity: 1; stroke-width: 1px;"/><g class="ytick"><text text-anchor="end" x="27.403674540682417" y="3.8499999999999996" transform="translate(0,356.75330708661414)" style="font-family: sans-serif; font-size: 11px; fill: rgb(0, 0, 0); fill-opacity: 1; white-space: pre; opacity: 1;">0</text></g><g class="ytick"><text text-anchor="end" x="27.403674540682417" y="3.8499999999999996" style="font-family: sans-serif; font-size: 11px; fill: rgb(0, 0, 0); fill-opacity: 1; white-space: pre; opacity: 1;" transform="translate(0,275.8733070866142)">25</text></g><g class="ytick"><text text-anchor="end" x="27.403674540682417" y="3.8499999999999996" style="font-family: sans-serif; font-size: 11px; fill: rgb(0, 0, 0); fill-opacity: 1; white-space: pre; opacity: 1;" transform="translate(0,194.99330708661415)">50</text></g><g class="ytick"><text text-anchor="end" x="27.403674540682417" y="3.8499999999999996" style="font-family: sans-serif; font-size: 11px; fill: rgb(0, 0, 0); fill-opacity: 1; white-space: pre; opacity: 1;" transform="translate(0,114.11330708661416)">75</text></g><g class="ytick"><text text-anchor="end" x="27.403674540682417" y="3.8499999999999996" style="font-family: sans-serif; font-size: 11px; fill: rgb(0, 0, 0); fill-opacity: 1; white-space: pre; opacity: 1;" transform="translate(0,33.22330708661417)">100</text></g></g><g class="overaxes-above"/></g></g><g class="polarlayer"/><g class="ternarylayer"/><g class="geolayer"/><g class="funnelarealayer"/><g class="pielayer"/><g class="iciclelayer"/><g class="treemaplayer"/><g class="sunburstlayer"/><g class="glimages"/><defs id="topdefs-ce4d76"><g class="clips"/><clipPath id="legendce4d76"><rect width="57" height="29" x="1" y="1"/></clipPath></defs><g class="layer-above"><g class="imagelayer"/><g class="shapelayer"/></g><g class="infolayer"><g class="legend" pointer-events="all" transform="translate(541,20)"><rect class="bg" shape-rendering="crispEdges" width="58" height="30" x="0.5" y="0.5" style="stroke: rgb(0, 0, 0); stroke-opacity: 1; fill: rgb(255, 255, 255); fill-opacity: 1; stroke-width: 1px;"/><g class="scrollbox" transform="" clip-path="url(#legendce4d76)"><g class="groups"><g class="traces" transform="translate(1,15.5)" style="opacity: 1;"><text class="legendtext" text-anchor="start" x="40" y="4.29" style="font-family: sans-serif; font-size: 11px; fill: rgb(0, 0, 0); fill-opacity: 1; white-space: pre;">y1</text><g class="layers" style="opacity: 1;"><g class="legendfill"/><g class="legendlines"><path class="js-line" d="M5,0h30" style="fill: none; stroke: rgb(0, 154, 250); stroke-opacity: 1; stroke-width: 1px;"/></g><g class="legendsymbols"><g class="legendpoints"/></g></g><rect class="legendtoggle" x="0" y="-9.5" width="51.625" height="19" style="fill: rgb(0, 0, 0); fill-opacity: 0;"/></g></g></g><rect class="scrollbar" rx="20" ry="3" width="0" height="0" x="0" y="0" style="fill: rgb(128, 139, 164); fill-opacity: 1;"/></g><g class="g-gtitle"/><g class="g-xtitle"/><g class="g-ytitle"/></g></svg>